<!DOCTYPE svg PUBLIC "-//W3C//DTD SVG 1.1//EN" "http://www.w3.org/Graphics/SVG/1.1/DTD/svg11.dtd">

<!-- Uploaded to: SVG Repo, www.svgrepo.com, Transformed by: SVG Repo Mixer Tools -->
<svg height="32px" width="32px" version="1.1" id="Layer_1" xmlns="http://www.w3.org/2000/svg" xmlns:xlink="http://www.w3.org/1999/xlink" viewBox="0 0 512 512" xml:space="preserve" fill="#000000">

<g id="SVGRepo_bgCarrier" stroke-width="0"/>

<g id="SVGRepo_tracerCarrier" stroke-linecap="round" stroke-linejoin="round"/>

<g id="SVGRepo_iconCarrier"> <circle style="fill:#FF9911;" cx="256" cy="256" r="247.916"/> <path style="fill:#ED8800;" d="M256,8.084c-10.96,0-21.752,0.72-32.337,2.099C345.304,26.029,439.242,130.04,439.242,256 s-93.939,229.971-215.579,245.817c10.585,1.379,21.377,2.099,32.337,2.099c136.921,0,247.916-110.996,247.916-247.916 S392.921,8.084,256,8.084z"/> <path style="fill:#FFFFFF;" d="M383.464,223.124h-51.473v-49.933c0-31.953-25.903-57.856-57.856-57.856h-79.387 c-31.953,0-57.856,25.903-57.856,57.856v165.619c0,31.953,25.903,57.856,57.856,57.856h144.061 c31.953,0,57.856-25.903,57.856-57.856V236.325C396.665,229.034,390.755,223.124,383.464,223.124z M207.495,158.451h53.895 c15.156,0,27.486,12.33,27.486,27.486s-12.33,27.486-27.486,27.486h-53.895c-15.156,0-27.486-12.33-27.486-27.486 S192.338,158.451,207.495,158.451z M326.063,342.771H207.495c-15.156,0-27.486-12.33-27.486-27.486 c0-15.156,12.33-27.486,27.486-27.486h118.568c15.156,0,27.486,12.33,27.486,27.486C353.549,330.44,341.219,342.771,326.063,342.771 z"/> <path d="M437.019,74.981C388.667,26.628,324.379,0,256,0S123.333,26.628,74.981,74.981S0,187.62,0,256 s26.628,132.667,74.981,181.019S187.62,512,256,512s132.667-26.628,181.019-74.981C485.372,388.667,512,324.379,512,256 S485.372,123.333,437.019,74.981z M256,495.832C123.756,495.832,16.168,388.244,16.168,256S123.756,16.168,256,16.168 S495.832,123.756,495.832,256S388.244,495.832,256,495.832z"/> <path d="M390.57,215.579h-51.033v-42.388c0-36.062-29.339-65.401-65.401-65.401h-79.387c-36.062,0-65.401,29.339-65.401,65.401 v165.619c0,36.062,29.339,65.401,65.401,65.401h144.061c36.062,0,65.401-29.339,65.401-65.401V229.22 C404.211,221.698,398.091,215.579,390.57,215.579z M388.042,338.809c0,27.147-22.085,49.233-49.233,49.233H194.749 c-27.147,0-49.233-22.086-49.233-49.233V173.191c0-27.147,22.086-49.233,49.233-49.233h79.387c27.148,0,49.233,22.086,49.233,49.233 v50.472c0,4.465,3.618,8.084,8.084,8.084h56.589V338.809z"/> <path d="M325.366,280.253h-64.197c-4.465,0-8.084,3.62-8.084,8.084l0,0c0,4.465,3.62,8.084,8.084,8.084h64.396 c10.55,0,19.536,8.633,19.36,19.183c-0.171,10.254-8.567,18.543-18.861,18.543H207.995c-10.55,0-19.536-8.633-19.36-19.183 c0.17-10.254,8.566-18.543,18.86-18.543h14.295c4.465,0,8.084-3.62,8.084-8.084l0,0c0-4.465-3.62-8.084-8.084-8.084h-13.597 c-19.6,0-36.058,16.039-35.725,35.636c0.323,19.039,15.912,34.427,35.026,34.427h118.568c19.114,0,34.703-15.388,35.026-34.427 C361.423,296.292,344.965,280.253,325.366,280.253z"/> <path d="M207.495,220.968h53.895c19.317,0,35.032-15.716,35.032-35.032s-15.715-35.032-35.032-35.032h-53.895 c-19.316,0-35.032,15.716-35.032,35.032S188.179,220.968,207.495,220.968z M207.495,167.074h53.895 c10.401,0,18.863,8.463,18.863,18.863c0,10.401-8.463,18.863-18.863,18.863h-53.895c-10.401,0-18.863-8.463-18.863-18.863 C188.632,175.536,197.094,167.074,207.495,167.074z"/> </g>

</svg>